<svg width="35" height="35" viewBox="0 0 35 35" fill="none" xmlns="http://www.w3.org/2000/svg">
<path fill-rule="evenodd" clip-rule="evenodd" d="M15.0455 1.01876L12.4091 3.65287C12.1962 3.86584 11.9076 3.9858 11.6065 3.98651H7.4582C5.54037 3.98651 3.98651 5.54037 3.98651 7.4582V11.6065C3.98651 11.9098 3.86518 12.1968 3.65287 12.4114L1.01643 15.0455C0.365609 15.6966 0 16.5794 0 17.5C0 18.4206 0.365609 19.3034 1.01643 19.9545L3.65287 22.5909C3.86584 22.8038 3.9858 23.0924 3.98651 23.3935V27.5418C3.98651 29.4596 5.54037 31.0135 7.4582 31.0135H11.6065C11.9098 31.0135 12.1968 31.1348 12.4114 31.3471L15.0455 33.9836C15.6966 34.6344 16.5794 35 17.5 35C18.4206 35 19.3034 34.6344 19.9545 33.9836L22.5909 31.3471C22.8038 31.1342 23.0924 31.0142 23.3935 31.0135H27.5418C29.4596 31.0135 31.0135 29.4596 31.0135 27.5418V23.3935C31.0135 23.0902 31.1348 22.8032 31.3471 22.5886L33.9836 19.9545C34.6344 19.3034 35 18.4206 35 17.5C35 16.5794 34.6344 15.6966 33.9836 15.0455L31.3471 12.4091C31.1342 12.1962 31.0142 11.9076 31.0135 11.6065V7.4582C31.0135 5.54037 29.4596 3.98651 27.5418 3.98651H23.3935C23.0916 3.98642 22.802 3.86641 22.5886 3.65287L19.9545 1.01643C19.3034 0.365609 18.4206 0 17.5 0C16.5794 0 15.6966 0.365609 15.0455 1.01643V1.01876ZM10.8412 22.5069L22.5069 10.8412L24.1588 12.4931L12.4931 24.1588L10.8412 22.5069ZM11.6672 11.6672V14.0003H14.0003V11.6672H11.6672ZM20.9997 23.3328H23.3328V20.9997H20.9997V23.3328Z" fill="url(#paint0_linear_1349_7037)"/>
<defs>
<linearGradient id="paint0_linear_1349_7037" x1="17.5" y1="0" x2="17.5" y2="35" gradientUnits="userSpaceOnUse">
<stop stop-color="#FA6864"/>
<stop offset="1" stop-color="#910400"/>
</linearGradient>
</defs>
</svg>
